{"title":"Shadow.of.a.Doubt.1943.720p.HDTV.DD2.0.x264-NaRB Hitchcock","uid":7263183,"size":2683274904,"categoryP":"video","categoryS":"hd___movies","magnet":"?xt=urn:btih:9031f31201d0f9670bb1b5519a97057f14e9e9ca&amp;dn=Shadow.of.a.Doubt.1943.720p.HDTV.DD2.0.x264-NaRB+Hitchcock&amp;tr=udp%3A%2F%2Ftracker.openbittorrent.com%3A80&amp;tr=udp%3A%2F%2Fopen.demonii.com%3A1337&amp;tr=udp%3A%2F%2Ftracker.coppersurfer.tk%3A6969&amp;tr=udp%3A%2F%2Fexodus.desync.com%3A6969","seeders":1,"leechers":1,"uploader":"Sp4ce","files":1,"time":1336789406,"description":"  Duration: 01:47:55.37, start: 0.000000, bitrate: 3315 kb/s\n    Stream #0:0(eng): Video: h264 (High), yuv420p, 976x720, SAR 1:1 DAR 61:45, 23.98\nfps, 23.98 tbr, 1k tbn, 47.95 tbc\n    Metadata:\n      title           : Shadow of a Doubt (1943) 720p HDTV\n    Stream #0:1(eng): Audio: ac3, 48000 Hz, stereo, s16, 192 kb/s (default)\n    Metadata:\n      title           : English DD2.0\n    Stream #0:2(eng): Subtitle: text (default)\n    Metadata:\n      title           : English\n","torrent":{"xt":"urn:btih:9031f31201d0f9670bb1b5519a97057f14e9e9ca","amp;dn":"Shadow.of.a.Doubt.1943.720p.HDTV.DD2.0.x264-NaRB+Hitchcock","amp;tr":["udp%3A%2F%2Ftracker.openbittorrent.com%3A80","udp%3A%2F%2Fopen.demonii.com%3A1337","udp%3A%2F%2Ftracker.coppersurfer.tk%3A6969","udp%3A%2F%2Fexodus.desync.com%3A6969"],"infoHash":"9031f31201d0f9670bb1b5519a97057f14e9e9ca","infoHashBuffer":{"type":"Buffer","data":[144,49,243,18,1,208,249,103,11,177,181,81,154,151,5,127,20,233,233,202]},"announce":[],"urlList":[]}}